

Formula One 2011 Season

Race 3: Turkish Grand Prix, Istanbul Park Curcuit

Record Source: BBC One Red Button Stream
Original Format: MPEG TS Stream
Date: Friday 06th May 2011
Time: 12:00 to 13:30

After several requests, I have now opted for the Matroska container format (mkv) for all sessions.


Turkey Grand Prix Practice Session 2

F1 coverage of the 2nd Practice Session for the 4th Race meeting of the 
2011 Formula One season, for the Turkish Grand Prix, at the Istanbul Park Curcuit

Complete name                    : F1 2011 Turkey Practice 1.mkv
Format                           : Matroska
File size                        : 1.67 GiB
Duration                         : 1h 40mn
Overall bit rate                 : 2 388 Kbps
Writing application              : Lavf51.12.1
Writing library                  : Lavf51.12.1

Video
ID                               : 1
Format                           : AVC
Format/Info                      : Advanced Video Codec
Format profile                   : Baseline@L1.3
Format settings, CABAC           : No
Format settings, ReFrames        : 1 frame
Codec ID                         : V_MPEG4/ISO/AVC
Duration                         : 1h 40mn
Bit rate                         : 2 213 Kbps
Width                            : 1 024 pixels
Height                           : 576 pixels
Display aspect ratio             : 16:9
Frame rate                       : 25.000 fps
Color space                      : YUV
Chroma subsampling               : 4:2:0
Bit depth                        : 8 bits
Scan type                        : Progressive
Bits/(Pixel*Frame)               : 0.150
Stream size                      : 1.55 GiB (93%)
Language                         : English

Audio
ID                               : 2
Format                           : AC-3
Format/Info                      : Audio Coding 3
Mode extension                   : CM (complete main)
Codec ID                         : A_AC3
Duration                         : 1h 40mn
Bit rate mode                    : Constant
Bit rate                         : 128 Kbps
Channel(s)                       : 2 channels
Channel positions                : Front: L R
Sampling rate                    : 48.0 KHz
Bit depth                        : 16 bits
Compression mode                 : Lossy
Stream size                      : 91.7 MiB (5%)
Language                         : English / English

Enjoy, TheBlackKnight

